<svg xmlns="http://www.w3.org/2000/svg" version="1.1" xmlns:xlink="http://www.w3.org/1999/xlink" xmlns:svgjs="http://svgjs.dev/svgjs" width="2000" height="1709" viewBox="0 0 2000 1709"><g transform="matrix(1,0,0,1,0.5377989023664895,0.6931805154796393)"><svg viewBox="0 0 289 247" data-background-color="#da0606" preserveAspectRatio="xMidYMid meet" height="1709" width="2000" xmlns="http://www.w3.org/2000/svg" xmlns:xlink="http://www.w3.org/1999/xlink"><g id="tight-bounds" transform="matrix(1,0,0,1,-0.07771194139195359,-0.09997365579206985)"><svg viewBox="0 0 289.1554238827839 247.2" height="247.2" width="289.1554238827839"><g><svg viewBox="0 0 289.1554238827839 247.2" height="247.2" width="289.1554238827839"><g><svg viewBox="0 0 289.1554238827839 247.2" height="247.2" width="289.1554238827839"><g id="textblocktransform"><svg viewBox="0 0 289.1554238827839 247.2" height="247.2" width="289.1554238827839" id="textblock"><g><svg viewBox="0 0 289.1554238827839 247.2" height="247.2" width="289.1554238827839"><path d="M288.478 53.02C287.119 27.36 283.245 20.227 283.245 20.227 271.35-6.202 256.506-0.506 243.17 3.292 219.626 3.446 196.176 9.091 172.686 12.119 123.382 12.581 73.655 4.986 24.595 23.717 19.987 29.464-4.781 24.846 0.82 56.304 2.288 69.39 7.644 83.913 7.481 95.922 8.215 98.026 9.234 93.202 9.669 96.23 11.192 104.39 13.679 100.541 15.719 105.365 12.877 118.246 14.916 128.971 16.86 140.21 13.435 143.135 9.044 141.749 7.073 151.449 6.869 158.479 5.768 157.145 4.558 156.837 3.674 156.632 1.894 157.402 2.193 159.608 3.212 167.152-1.165 171.514 1.581 178.904-0.309 186.91 2.886 193.838 2.451 202.511 2.397 204.255 2.696 205.744 3.171 206.154 5.278 208.361 2.206 212.672 2.533 217.342 24.147 249.262 47.596 227.195 69.74 241.872 75.491 231.608 71.168 245.516 73.465 243.36 75.259 240.846 76.564 251.263 78.59 245.362 78.903 243.668 78.427 239.665 79.541 240.435 80.126 240.846 80.643 240.743 80.724 238.382 80.846 234.841 79.773 237.048 79.487 235.201 82.573 225.861 81.812 248.081 84.707 247.158 84.571 244.438 83.728 240.538 85.455 241.051 87.168 237.151 87.222 233.918 88.745 242.693 88.799 244.592 89.071 245.926 89.506 246.85 94.264 237.305 98.994 250.237 103.983 245.926 107.042 241.205 109.978 248.492 113.077 246.696 114.165 245.259 115.266 242.693 116.313 247.004 129.132 247.928 142.794 244.079 154.946 247.158 187.422 241.41 222.127 249.518 256.37 241.923 264.445 238.998 272.832 234.841 280.703 231.506 280.703 231.506 287.078 222.371 287.078 181.316S288.438 145.393 288.642 112.703C288.845 80.013 289.797 78.679 288.438 53.02Z" opacity="1" fill="#ffffff" data-fill-palette-color="tertiary"></path><g transform="matrix(1,0,0,1,55.76832000000002,26.230666666666668)"><svg width="177.61878388278387" viewBox="0.44 -35.55 32.42 35.55" height="194.73866666666666" data-palette-color="#da0606"><path d="M26.42 0L23.51-8.28 9.74-8.28 6.86 0 0.44 0 13.87-35.55 19.41-35.55 32.86 0 26.42 0ZM16.63-28L11.47-13.26 21.78-13.26 16.63-28Z" opacity="1" transform="matrix(1,0,0,1,0,0)" fill="#da0606" class="wordmark-text-0" data-fill-palette-color="quaternary" id="text-0"></path></svg></g></svg></g></svg></g></svg></g><g></g></svg></g><defs></defs></svg><rect width="289.1554238827839" height="247.2" fill="none" stroke="none" visibility="hidden"></rect></g></svg></g></svg>